<svg width="18" height="18" viewBox="0 0 18 18" fill="none" xmlns="http://www.w3.org/2000/svg">
<path fill-rule="evenodd" clip-rule="evenodd" d="M13.0179 10.5435C13.4922 10.5435 13.9398 10.7491 14.3108 11.1337L16.4109 13.2321C16.7973 13.6129 17 14.0661 17 14.5383C17 15.0067 16.8011 15.4637 16.4224 15.856C16.2579 16.0273 16.0896 16.1911 15.9251 16.3472C15.9072 16.3644 15.8894 16.3816 15.8717 16.3986C15.6503 16.6118 15.4398 16.8144 15.2557 17.0365C15.2538 17.0403 15.2509 17.0432 15.248 17.046C15.2452 17.0489 15.2423 17.0517 15.2404 17.0556C14.6589 17.6839 13.9168 18 13.0332 18C12.9567 18 12.8725 17.9962 12.7922 17.9924C11.4801 17.9086 10.3058 17.4173 9.42594 17.0022C7.12312 15.894 5.10719 14.3212 3.43172 12.3295C2.05079 10.6767 1.12507 9.13441 0.505377 7.47021C0.252908 6.79234 -0.0760663 5.7565 0.0157405 4.64449C0.076945 3.9552 0.356191 3.36111 0.845827 2.87366L2.14642 1.56743L2.15407 1.55981C2.5366 1.19422 2.98799 1 3.45467 1C3.92136 1 4.36509 1.19422 4.73614 1.55981C4.98478 1.78831 5.22578 2.03203 5.45529 2.26815C5.57004 2.39 5.69245 2.51186 5.81102 2.62991L5.81105 2.62993L6.85535 3.66958C7.65866 4.46931 7.65866 5.50515 6.85535 6.30488C6.80179 6.3582 6.74824 6.41247 6.69469 6.46673C6.64113 6.521 6.58758 6.57527 6.53402 6.62858C6.50671 6.65614 6.47933 6.68381 6.45186 6.71156C6.19464 6.97142 5.92997 7.2388 5.64656 7.49686C5.8799 8.01098 6.20122 8.51747 6.67938 9.11918C7.66631 10.3264 8.69531 11.2594 9.82759 11.9754C9.93853 12.0439 10.0686 12.1086 10.2063 12.1772C10.2387 12.194 10.2716 12.2108 10.3047 12.2277C10.3694 12.2607 10.4351 12.2943 10.5008 12.3295L11.7096 11.1299C12.096 10.7453 12.5474 10.5435 13.0179 10.5435ZM15.3008 15.5239C15.4327 15.3962 15.5578 15.2751 15.6803 15.1438C16.0705 14.7401 16.0705 14.3403 15.6765 13.9518L13.5687 11.8535L13.5611 11.8459C13.4425 11.7164 13.2474 11.5679 13.0102 11.5679C12.7692 11.5679 12.5627 11.724 12.4326 11.8535L11.1244 13.1559C11.0593 13.2207 10.8604 13.4187 10.5429 13.4187C10.4167 13.4187 10.2943 13.3882 10.1642 13.3235C10.1566 13.3197 10.1489 13.3149 10.1413 13.3102C10.1336 13.3054 10.126 13.3006 10.1183 13.2968C10.0074 13.2283 9.87732 13.1635 9.73961 13.095L9.7396 13.095C9.58659 13.0188 9.42593 12.9388 9.2691 12.8398C8.04119 12.0668 6.92803 11.0576 5.87225 9.76277L5.86842 9.75896C5.28698 9.02397 4.90445 8.40703 4.63286 7.75202L4.62138 7.71774C4.55253 7.50067 4.49132 7.18078 4.8203 6.85327C4.82277 6.84835 4.82683 6.84502 4.83146 6.84123C4.834 6.83915 4.83671 6.83693 4.83942 6.83423C5.17222 6.53719 5.47825 6.23253 5.79957 5.90502C5.87338 5.83407 5.94551 5.76143 6.01819 5.68822C6.05474 5.65141 6.09143 5.61446 6.12854 5.57751C6.53402 5.17384 6.53402 4.80063 6.12854 4.39695L5.08424 3.3573C5.02352 3.29496 4.96279 3.23355 4.90253 3.17262C4.84132 3.11072 4.7806 3.04931 4.72084 2.9879C4.4875 2.74798 4.26563 2.5233 4.03229 2.30623L4.02081 2.2948C3.8984 2.17294 3.70331 2.02823 3.46232 2.02823C3.26723 2.02823 3.06832 2.12343 2.88088 2.29861L1.57646 3.59722C1.25896 3.91331 1.08682 4.28271 1.04857 4.72827C0.991188 5.42518 1.12125 6.16398 1.477 7.11223C2.05462 8.66599 2.92678 10.1131 4.2312 11.6783C5.81105 13.5558 7.71221 15.0372 9.87732 16.0806C10.6692 16.4577 11.7249 16.8994 12.861 16.9718C12.9184 16.9756 12.9796 16.9756 13.037 16.9756C13.6338 16.9756 14.089 16.7814 14.4753 16.3701C14.7125 16.0921 14.9649 15.8445 15.2136 15.6084C15.243 15.5798 15.2721 15.5517 15.3008 15.5239Z" fill="white"/>
<path d="M9.46692 4.12539C10.5678 4.31029 11.5679 4.83137 12.3662 5.6298C13.1646 6.42822 13.6814 7.42836 13.8705 8.52935C13.9167 8.8067 14.1562 9 14.4294 9C14.463 9 14.4924 8.9958 14.526 8.9916C14.8369 8.94117 15.0428 8.64701 14.9924 8.33604C14.7655 7.00393 14.1352 5.78948 13.173 4.82717C12.2108 3.86485 10.9964 3.23452 9.66441 3.0076C9.35347 2.95717 9.06354 3.16308 9.00892 3.46984C8.95429 3.77661 9.15598 4.07497 9.46692 4.12539Z" fill="white"/>
<path d="M17.9918 8.3749C17.6353 6.28324 16.6499 4.37991 15.1358 2.86525C13.6217 1.3506 11.719 0.364872 9.6281 0.00824704C9.33569 -0.0438442 9.05931 0.156507 9.00724 0.449019C8.95917 0.745539 9.15544 1.02202 9.45186 1.07411C11.3185 1.39067 13.0208 2.27622 14.3747 3.62659C15.7286 4.98096 16.6098 6.68394 16.9263 8.55121C16.9703 8.81568 17.1987 9 17.459 9C17.4911 9 17.5191 8.99599 17.5511 8.99199C17.8435 8.94791 18.0438 8.66742 17.9918 8.3749Z" fill="white"/>
</svg>
