<svg width="1449" height="863" viewBox="0 0 1449 863" fill="none" xmlns="http://www.w3.org/2000/svg">
<rect width="1449" height="74" fill="#161616"/>
<rect width="105" height="861" fill="#161616"/>
<rect x="1344" width="105" height="861" fill="#161616"/>
<path opacity="0.197988" d="M105 862V73H1343V862" stroke="white"/>
<path opacity="0.197988" d="M4 861.5H1444" stroke="white"/>
<path opacity="0.197988" d="M0 73.5H105" stroke="white"/>
<path opacity="0.197988" d="M1344 73.5H1449" stroke="white"/>
<path opacity="0.197988" d="M0 146.5H105" stroke="white"/>
<path opacity="0.197988" d="M1344 146.5H1449" stroke="white"/>
<path opacity="0.197988" d="M0 220.5H105" stroke="white"/>
<path opacity="0.197988" d="M1344 220.5H1449" stroke="white"/>
<path opacity="0.197988" d="M0 294.5H105" stroke="white"/>
<path opacity="0.197988" d="M1344 294.5H1449" stroke="white"/>
<path opacity="0.197988" d="M0 368.5H105" stroke="white"/>
<path opacity="0.197988" d="M1344 368.5H1449" stroke="white"/>
<path opacity="0.197988" d="M0 442.5H105" stroke="white"/>
<path opacity="0.197988" d="M1344 442.5H1449" stroke="white"/>
<path opacity="0.197988" d="M0 516.5H105" stroke="white"/>
<path opacity="0.197988" d="M1344 516.5H1449" stroke="white"/>
<path opacity="0.197988" d="M0 590.5H105" stroke="white"/>
<path opacity="0.197988" d="M1344 590.5H1449" stroke="white"/>
<path opacity="0.197988" d="M0 664.5H105" stroke="white"/>
<path opacity="0.197988" d="M1344 664.5H1449" stroke="white"/>
<path opacity="0.197988" d="M0 738.5H105" stroke="white"/>
<path opacity="0.197988" d="M1344 738.5H1449" stroke="white"/>
<path opacity="0.197988" d="M0 812.5H105" stroke="white"/>
<path opacity="0.197988" d="M1344 812.5H1449" stroke="white"/>
<path opacity="0.197988" d="M37.5 74V147" stroke="white"/>
<path opacity="0.197988" d="M71.5 0V73" stroke="white"/>
<path opacity="0.197988" d="M141.5 0V73" stroke="white"/>
<path opacity="0.197988" d="M211.5 0V73" stroke="white"/>
<path opacity="0.197988" d="M282.5 0V73" stroke="white"/>
<path opacity="0.197988" d="M352.5 0V73" stroke="white"/>
<path opacity="0.197988" d="M422.5 0V73" stroke="white"/>
<path opacity="0.197988" d="M492.5 0V73" stroke="white"/>
<path opacity="0.197988" d="M563.5 0V73" stroke="white"/>
<path opacity="0.197988" d="M634.5 0V73" stroke="white"/>
<path opacity="0.197988" d="M705.5 0V73" stroke="white"/>
<path opacity="0.197988" d="M776.5 0V73" stroke="white"/>
<path opacity="0.197988" d="M847.5 0V73" stroke="white"/>
<path opacity="0.197988" d="M918.5 0V73" stroke="white"/>
<path opacity="0.197988" d="M989.5 0V73" stroke="white"/>
<path opacity="0.197988" d="M1060.5 0V73" stroke="white"/>
<path opacity="0.197988" d="M1131.5 0V73" stroke="white"/>
<path opacity="0.197988" d="M1202.5 0V73" stroke="white"/>
<path opacity="0.197988" d="M1273.5 0V73" stroke="white"/>
<path opacity="0.197988" d="M1343.5 0V73" stroke="white"/>
<path opacity="0.197988" d="M1414.5 0V73" stroke="white"/>
<path opacity="0.197988" d="M1381.5 74V147" stroke="white"/>
<path opacity="0.197988" d="M71.5 147V220" stroke="white"/>
<path opacity="0.197988" d="M1415.5 147V220" stroke="white"/>
<path opacity="0.197988" d="M71.5 443V516" stroke="white"/>
<path opacity="0.197988" d="M1415.5 443V516" stroke="white"/>
<path opacity="0.197988" d="M71.5 295V368" stroke="white"/>
<path opacity="0.197988" d="M1415.5 295V368" stroke="white"/>
<path opacity="0.197988" d="M71.5 591V664" stroke="white"/>
<path opacity="0.197988" d="M1415.5 591V664" stroke="white"/>
<path opacity="0.197988" d="M71.5 739V812" stroke="white"/>
<path opacity="0.197988" d="M1415.5 739V812" stroke="white"/>
<path opacity="0.197988" d="M37.5 221V294" stroke="white"/>
<path opacity="0.197988" d="M1381.5 221V294" stroke="white"/>
<path opacity="0.197988" d="M37.5 369V442" stroke="white"/>
<path opacity="0.197988" d="M1381.5 369V442" stroke="white"/>
<path opacity="0.197988" d="M37.5 517V590" stroke="white"/>
<path opacity="0.197988" d="M1381.5 517V590" stroke="white"/>
<path opacity="0.197988" d="M37.5 665V738" stroke="white"/>
<path opacity="0.197988" d="M1381.5 665V738" stroke="white"/>
<path opacity="0.197988" d="M37.5 812V863" stroke="white"/>
<path opacity="0.197988" d="M1381.5 812V863" stroke="white"/>
</svg>
